<svg xmlns="http://www.w3.org/2000/svg" width="39" height="36.836" viewBox="0 0 39 36.836">
  <path id="cog-glow" d="M35,16.709,32.974,12.38l-4.328-2.026,4.328-2.026L35,4l2.026,4.328,4.328,2.026L37.026,12.38Zm3.868,13.307-1.381-2.9-2.9-1.381,2.9-1.381,1.381-2.9,1.381,2.9,2.9,1.381-2.9,1.381ZM14.786,40.836l-.46-4.236a5.1,5.1,0,0,1-2.532-1.2L8.2,36.922,4.15,30.292l3.5-2.3a4.259,4.259,0,0,1,0-2.763l-3.5-2.3L8.2,16.294l3.592,1.519a5.1,5.1,0,0,1,2.532-1.2l.46-4.236h7.736l.46,4.236a5.1,5.1,0,0,1,2.532,1.2l3.592-1.519,4.052,6.631-3.5,2.3a4.259,4.259,0,0,1,0,2.763l3.5,2.3-4.052,6.631L25.515,35.4a5.1,5.1,0,0,1-2.532,1.2l-.46,4.236ZM18.654,31.9a5.12,5.12,0,0,0,5.3-5.3,5.12,5.12,0,0,0-5.3-5.3,5.12,5.12,0,0,0-5.3,5.3,5.12,5.12,0,0,0,5.3,5.3Zm0-2.763a2.443,2.443,0,1,1,1.819-.714A2.464,2.464,0,0,1,18.654,29.141Zm-1.566,8.933H20.22l.368-3.5a10.05,10.05,0,0,0,2.44-.921,8.16,8.16,0,0,0,2.026-1.566l2.993,1.335,1.519-2.394L26.712,29a5.913,5.913,0,0,0,0-4.789l2.855-2.026-1.519-2.394-2.993,1.335a8.16,8.16,0,0,0-2.026-1.566,10.05,10.05,0,0,0-2.44-.921l-.368-3.5H17.089l-.368,3.5a10.05,10.05,0,0,0-2.44.921,8.16,8.16,0,0,0-2.026,1.566L9.261,19.794,7.742,22.188,10.6,24.214A5.913,5.913,0,0,0,10.6,29L7.742,31.029l1.519,2.394,2.993-1.335a8.16,8.16,0,0,0,2.026,1.566,10.05,10.05,0,0,0,2.44.921ZM18.654,26.608Z" transform="translate(-4.15 -4)" fill="#beaf87"/>
</svg>
