<svg id="footer-logo" xmlns="http://www.w3.org/2000/svg" width="107" height="106.619" viewBox="0 0 107 106.619">
  <path id="Path_9" data-name="Path 9" d="M102.943,14.113,93.058,0H89V21h4.058V6.886L102.943,21H107V0h-4.057ZM107,50.05A7.259,7.259,0,0,0,99.563,43H90V64h4.231V57.1h2.7l5.04,6.9H107l-5.264-7.207A7.121,7.121,0,0,0,107,50.049m-7.437,3.04H94.231V47.01h5.332a3.044,3.044,0,1,1,0,6.079" fill="#f5f6f7" fill-rule="evenodd"/>
  <path id="Path_10" data-name="Path 10" d="M98.839,85H94v4.01h2.115V106H100V85Z" fill="#beaf87" fill-rule="evenodd"/>
  <path id="Path_11" data-name="Path 11" d="M13.349,4.01A6.32,6.32,0,0,1,17.73,5.777L20,2.457A10.215,10.215,0,0,0,13.349,0,10.424,10.424,0,0,0,3,10.5,10.424,10.424,0,0,0,13.349,21,10.217,10.217,0,0,0,20,18.543l-2.27-3.32a6.323,6.323,0,0,1-4.381,1.766,6.49,6.49,0,0,1,0-12.979M9.422,43H3v4.01H9.422V64h4.156V47.01H20V43H9.422Zm7.653,42L11,93.493,4.925,85H0L8.929,97.484V106h4.142V97.483L22,85ZM47,0V21H61V16.99H51.01V12.506h8.02V8.494H51.01V4.01H61V0H47ZM59.47,55.59a4.871,4.871,0,0,1-9.733,0V43.19h-4.2v12.4a9.077,9.077,0,0,0,18.137,0V43.19h-4.2v12.4Z" fill="#f5f6f7" fill-rule="evenodd"/>
  <path id="Path_12" data-name="Path 12" d="M60.116,96.068l.109-.15a6.438,6.438,0,0,0,.989-5.3,6.907,6.907,0,0,0-6.759-5.09A6.815,6.815,0,0,0,47.5,92.2c0,.083,0,.166.005.248h4.209q-.012-.124-.012-.248a2.7,2.7,0,0,1,2.752-2.638A2.606,2.606,0,0,1,57.208,92.2a5.139,5.139,0,0,1-.886,2.05c-.234.328-8.935,12.372-8.935,12.372H61.82v-4.027H55.4l4.713-6.524Z" fill="#beaf87" fill-rule="evenodd"/>
</svg>
