<svg xmlns="http://www.w3.org/2000/svg" width="29.44" height="32.43" viewBox="0 0 29.44 32.43">
  <path id="home" d="M10.76,36.42h6.9V24.92H27.78v11.5h6.9V18.48L22.72,9.51,10.76,18.48Zm0,2.76A2.749,2.749,0,0,1,8,36.42V18.48a2.744,2.744,0,0,1,.3-1.242,2.619,2.619,0,0,1,.805-.966L21.064,7.3a2.74,2.74,0,0,1,3.312,0l11.96,8.97a2.619,2.619,0,0,1,.805.966,2.744,2.744,0,0,1,.3,1.242V36.42a2.749,2.749,0,0,1-2.76,2.76H25.02V27.68h-4.6v11.5ZM22.72,22.942Z" transform="translate(-8 -6.75)" fill="#beaf87"/>
</svg>
