<svg xmlns="http://www.w3.org/2000/svg" width="25.763" height="31.6" viewBox="0 0 25.763 31.6">
  <path id="location" d="M16.882,18.1a3.23,3.23,0,0,0,3.22-3.22,3.217,3.217,0,0,0-5.494-2.275,3.205,3.205,0,0,0,0,4.549A3.1,3.1,0,0,0,16.882,18.1Zm0,11.835a44.3,44.3,0,0,0,7.286-8.193A12.5,12.5,0,0,0,26.543,15.2a9.729,9.729,0,0,0-2.8-7.186,9.331,9.331,0,0,0-6.863-2.8,9.336,9.336,0,0,0-6.864,2.8A9.732,9.732,0,0,0,7.22,15.2,12.5,12.5,0,0,0,9.6,21.744,44.3,44.3,0,0,0,16.882,29.937Zm0,3.663a1.823,1.823,0,0,1-.644-.121,1.931,1.931,0,0,1-.564-.322A49.691,49.691,0,0,1,6.9,23.517,15.444,15.444,0,0,1,4,15.2,12.452,12.452,0,0,1,7.885,5.583a12.865,12.865,0,0,1,9-3.583,12.865,12.865,0,0,1,9,3.583A12.452,12.452,0,0,1,29.763,15.2a15.444,15.444,0,0,1-2.9,8.313,49.691,49.691,0,0,1-8.776,9.64,1.93,1.93,0,0,1-.564.322,1.823,1.823,0,0,1-.644.121ZM16.882,15.2Z" transform="translate(-4 -2)" fill="#beaf87"/>
</svg>
