<svg xmlns="http://www.w3.org/2000/svg" width="69.315" height="88.36" viewBox="0 0 69.315 88.36">
  <path id="logo" d="M37.522,55.97l8.168-11.8.189-.272a12.057,12.057,0,1,0-22.054-6.737c0,.155,0,.3.009.453h7.294c-.013-.155-.021-.3-.021-.453a4.774,4.774,0,0,1,4.77-4.768,4.606,4.606,0,0,1,4.772,4.768,9.37,9.37,0,0,1-1.534,3.705c-.408.6-15.489,22.4-15.489,22.4H44.25l5.042-7.294H37.522ZM56.161,25.1h-.08L51.038,32.39h6.336V63.264h7.281V25.1H56.161Zm2.324,53.081a36.886,36.886,0,1,1,0-67.993,37.883,37.883,0,0,1,5.8,3.1L68.44,7.294a44.167,44.167,0,1,0-24.3,81.066,43.882,43.882,0,0,0,25.174-7.89l-4.15-5.986a36.758,36.758,0,0,1-6.68,3.692Zm8.231-14.964a.75.75,0,0,1-.24-.13l.084-.155a.919.919,0,0,0,.212.13.807.807,0,0,0,.246.039.338.338,0,0,0,.236-.065.206.206,0,0,0,.089-.181.185.185,0,0,0-.047-.143.192.192,0,0,0-.106-.065A1.033,1.033,0,0,0,67,62.59a1.108,1.108,0,0,1-.3-.091.369.369,0,0,1-.153-.13.307.307,0,0,1-.044-.181.411.411,0,0,1,.078-.259.424.424,0,0,1,.2-.143.8.8,0,0,1,.251-.039.794.794,0,0,1,.453.143l-.08.143a.678.678,0,0,0-.38-.117.371.371,0,0,0-.254.065.261.261,0,0,0-.087.207.178.178,0,0,0,.03.1.155.155,0,0,0,.1.078,1.214,1.214,0,0,0,.21.065c.092.013.17.039.234.052a.536.536,0,0,1,.176.117.363.363,0,0,1,.079.233.389.389,0,0,1-.061.22.428.428,0,0,1-.172.155.79.79,0,0,1-.263.052,1.28,1.28,0,0,1-.311-.052Zm2.49.026h-.17V62.02l-.425,1.062h-.189L68,62.02v1.218h-.171V61.774h.251l.438,1.088.434-1.088h.254v1.464Z" transform="translate(0 0)" fill="#beaf87" fill-rule="evenodd"/>
</svg>
