<svg xmlns="http://www.w3.org/2000/svg" width="41.952" height="20.976" viewBox="0 0 41.952 20.976">
  <path id="person-group" d="M1.748,26.976a1.687,1.687,0,0,1-1.245-.5A1.687,1.687,0,0,1,0,25.228V24.223a3.488,3.488,0,0,1,1.923-3.082,9.752,9.752,0,0,1,5.069-1.157q.568,0,1.072.044t.982.131a6.211,6.211,0,0,0-.9,1.879,7.864,7.864,0,0,0-.283,2.141v2.8Zm10.488,0a1.717,1.717,0,0,1-1.748-1.748V24.179a5.268,5.268,0,0,1,2.907-4.611A14.425,14.425,0,0,1,20.976,17.8a14.407,14.407,0,0,1,7.6,1.769,5.273,5.273,0,0,1,2.884,4.611v1.049a1.72,1.72,0,0,1-1.748,1.748Zm21.85,0v-2.8a7.242,7.242,0,0,0-1.18-4.02q.481-.087.984-.131t1.07-.044a9.752,9.752,0,0,1,5.069,1.157,3.488,3.488,0,0,1,1.923,3.082v1.005A1.72,1.72,0,0,1,40.2,26.976ZM6.992,18.236a3.362,3.362,0,0,1-2.468-1.028,3.479,3.479,0,0,1,0-4.938,3.365,3.365,0,0,1,2.468-1.026A3.365,3.365,0,0,1,9.46,12.27a3.479,3.479,0,0,1,0,4.938A3.362,3.362,0,0,1,6.992,18.236Zm27.968,0a3.506,3.506,0,0,1-3.5-3.5,3.5,3.5,0,1,1,5.966,2.468A3.368,3.368,0,0,1,34.96,18.236ZM20.976,16.488a5.222,5.222,0,0,1-5.244-5.244A5.222,5.222,0,0,1,20.976,6a5.222,5.222,0,0,1,5.244,5.244,5.222,5.222,0,0,1-5.244,5.244Z" transform="translate(0 -6)" fill="#beaf87"/>
</svg>
